<?xml version="1.0" encoding="UTF-8" standalone="no"?>
<!DOCTYPE svg PUBLIC "-//W3C//DTD SVG 1.1//EN"
 "http://www.w3.org/Graphics/SVG/1.1/DTD/svg11.dtd">
<!-- Generated by graphviz version 2.38.0 (20140413.2041)
 -->
<!-- Title: %3 Pages: 1 -->
<svg width="1165pt" height="214pt"
 viewBox="0.00 0.00 1165.33 214.43" xmlns="http://www.w3.org/2000/svg" xmlns:xlink="http://www.w3.org/1999/xlink">
<g id="graph0" class="graph" transform="scale(1 1) rotate(0) translate(4 210.426)">
<title>%3</title>
<polygon fill="white" stroke="none" points="-4,4 -4,-210.426 1161.33,-210.426 1161.33,4 -4,4"/>
<!-- fake -->
<g id="node1" class="node"><title>fake</title>
</g>
<!-- 2 -->
<g id="node3" class="node"><title>2</title>
<ellipse fill="none" stroke="black" cx="122.327" cy="-115.426" rx="27" ry="18"/>
<text text-anchor="middle" x="122.327" y="-111.726" font-family="Times,serif" font-size="14.00">2</text>
</g>
<!-- fake&#45;&gt;2 -->
<g id="edge1" class="edge"><title>fake&#45;&gt;2</title>
<path fill="none" stroke="black" stroke-width="2" d="M122.327,-170.239C122.327,-162.215 122.327,-152.473 122.327,-143.495"/>
<polygon fill="black" stroke="black" stroke-width="2" points="125.827,-143.455 122.327,-133.455 118.827,-143.455 125.827,-143.455"/>
</g>
<!-- 1 -->
<g id="node2" class="node"><title>1</title>
<ellipse fill="none" stroke="black" cx="122.327" cy="-24.4259" rx="18" ry="18"/>
<ellipse fill="none" stroke="black" cx="122.327" cy="-24.4259" rx="22" ry="22"/>
<text text-anchor="middle" x="122.327" y="-20.7259" font-family="Times,serif" font-size="14.00">1</text>
</g>
<!-- 1&#45;&gt;1 -->
<g id="edge2" class="edge"><title>1&#45;&gt;1</title>
<path fill="none" stroke="black" d="M144.539,-25.9079C154.122,-26.0293 162.327,-25.5353 162.327,-24.4259 162.327,-23.7499 159.28,-23.3023 154.731,-23.0833"/>
<polygon fill="black" stroke="black" points="154.586,-19.5811 144.539,-22.9438 154.49,-26.5805 154.586,-19.5811"/>
<text text-anchor="middle" x="174.327" y="-20.7259" font-family="Times,serif" font-size="14.00">{A}</text>
</g>
<!-- 1&#45;&gt;1 -->
<g id="edge3" class="edge"><title>1&#45;&gt;1</title>
<path fill="none" stroke="black" d="M144.412,-26.9308C164.244,-28.0733 186.327,-27.2384 186.327,-24.4259 186.327,-22.0968 171.183,-21.1239 154.714,-21.5071"/>
<polygon fill="black" stroke="black" points="154.264,-18.0223 144.412,-21.921 154.545,-25.0167 154.264,-18.0223"/>
<text text-anchor="middle" x="211.327" y="-20.7259" font-family="Times,serif" font-size="14.00">{last, A}</text>
</g>
<!-- 1&#45;&gt;1 -->
<g id="edge4" class="edge"><title>1&#45;&gt;1</title>
<path fill="none" stroke="black" d="M144.33,-27.3395C180.023,-30.1783 236.327,-29.2071 236.327,-24.4259 236.327,-20.0742 189.685,-18.8787 154.393,-20.8394"/>
<polygon fill="black" stroke="black" points="154.074,-17.3529 144.33,-21.5123 154.541,-24.3373 154.074,-17.3529"/>
<text text-anchor="middle" x="256.327" y="-20.7259" font-family="Times,serif" font-size="14.00">{B, A}</text>
</g>
<!-- 1&#45;&gt;1 -->
<g id="edge5" class="edge"><title>1&#45;&gt;1</title>
<path fill="none" stroke="black" d="M144.179,-27.7174C190.608,-32.2106 276.327,-31.1134 276.327,-24.4259 276.327,-18.1955 201.927,-16.8173 154.211,-20.2913"/>
<polygon fill="black" stroke="black" points="153.85,-16.8092 144.179,-21.1344 154.437,-23.7846 153.85,-16.8092"/>
<text text-anchor="middle" x="292.827" y="-20.7259" font-family="Times,serif" font-size="14.00">{last}</text>
</g>
<!-- 1&#45;&gt;1 -->
<g id="edge6" class="edge"><title>1&#45;&gt;1</title>
<path fill="none" stroke="black" d="M144.387,-28.0934C199.296,-34.2226 309.327,-33.0001 309.327,-24.4259 309.327,-16.3541 211.812,-14.7977 154.573,-19.7567"/>
<polygon fill="black" stroke="black" points="153.996,-16.2965 144.387,-20.7584 154.681,-23.2629 153.996,-16.2965"/>
<text text-anchor="middle" x="316.327" y="-20.7259" font-family="Times,serif" font-size="14.00">{}</text>
</g>
<!-- 1&#45;&gt;1 -->
<g id="edge7" class="edge"><title>1&#45;&gt;1</title>
<path fill="none" stroke="black" d="M143.979,-28.416C204.103,-36.2325 327.327,-34.9024 327.327,-24.4259 327.327,-14.5018 216.756,-12.785 153.99,-19.2755"/>
<polygon fill="black" stroke="black" points="153.51,-15.8076 143.979,-20.4358 154.316,-22.7611 153.51,-15.8076"/>
<text text-anchor="middle" x="355.827" y="-20.7259" font-family="Times,serif" font-size="14.00">{B, A, C}</text>
</g>
<!-- 1&#45;&gt;1 -->
<g id="edge8" class="edge"><title>1&#45;&gt;1</title>
<path fill="none" stroke="black" d="M144.358,-28.5811C216.376,-38.2524 384.327,-36.8673 384.327,-24.4259 384.327,-12.5434 231.126,-10.7462 154.62,-19.0342"/>
<polygon fill="black" stroke="black" points="153.867,-15.5995 144.358,-20.2707 154.704,-22.5493 153.867,-15.5995"/>
<text text-anchor="middle" x="417.827" y="-20.7259" font-family="Times,serif" font-size="14.00">{B, last, A}</text>
</g>
<!-- 1&#45;&gt;1 -->
<g id="edge9" class="edge"><title>1&#45;&gt;1</title>
<path fill="none" stroke="black" d="M144.053,-28.6179C228.018,-40.2763 451.327,-38.879 451.327,-24.4259 451.327,-10.5232 244.704,-8.70081 154.233,-18.9587"/>
<polygon fill="black" stroke="black" points="153.541,-15.518 144.053,-20.2339 154.411,-22.4637 153.541,-15.518"/>
<text text-anchor="middle" x="462.827" y="-20.7259" font-family="Times,serif" font-size="14.00">{C}</text>
</g>
<!-- 1&#45;&gt;1 -->
<g id="edge10" class="edge"><title>1&#45;&gt;1</title>
<path fill="none" stroke="black" d="M144.034,-28.8416C233.543,-42.2806 474.327,-40.8087 474.327,-24.4259 474.327,-8.61903 250.176,-6.6931 154.019,-18.6481"/>
<polygon fill="black" stroke="black" points="153.469,-15.1905 144.034,-20.0102 154.416,-22.1263 153.469,-15.1905"/>
<text text-anchor="middle" x="494.327" y="-20.7259" font-family="Times,serif" font-size="14.00">{A, C}</text>
</g>
<!-- 1&#45;&gt;1 -->
<g id="edge11" class="edge"><title>1&#45;&gt;1</title>
<path fill="none" stroke="black" d="M144.081,-28.9929C241.323,-44.2881 514.327,-42.7657 514.327,-24.4259 514.327,-6.67707 258.635,-4.67928 154.015,-18.4325"/>
<polygon fill="black" stroke="black" points="153.482,-14.973 144.081,-19.8588 154.477,-21.902 153.482,-14.973"/>
<text text-anchor="middle" x="538.827" y="-20.7259" font-family="Times,serif" font-size="14.00">{B, last}</text>
</g>
<!-- 1&#45;&gt;1 -->
<g id="edge12" class="edge"><title>1&#45;&gt;1</title>
<path fill="none" stroke="black" d="M143.915,-29.0703C249.539,-46.2982 563.327,-44.7501 563.327,-24.4259 563.327,-4.71695 268.25,-2.66448 154.066,-18.2685"/>
<polygon fill="black" stroke="black" points="153.29,-14.8454 143.915,-19.7815 154.322,-21.7689 153.29,-14.8454"/>
<text text-anchor="middle" x="574.827" y="-20.7259" font-family="Times,serif" font-size="14.00">{B}</text>
</g>
<!-- 1&#45;&gt;1 -->
<g id="edge13" class="edge"><title>1&#45;&gt;1</title>
<path fill="none" stroke="black" d="M144.049,-29.253C255.248,-48.3006 586.327,-46.6915 586.327,-24.4259 586.327,-2.79083 273.735,-0.658927 154.013,-18.0302"/>
<polygon fill="black" stroke="black" points="153.383,-14.5862 144.049,-19.5988 154.472,-21.501 153.383,-14.5862"/>
<text text-anchor="middle" x="610.827" y="-20.7259" font-family="Times,serif" font-size="14.00">{last, C}</text>
</g>
<!-- 1&#45;&gt;1 -->
<g id="edge14" class="edge"><title>1&#45;&gt;1</title>
<path fill="none" stroke="black" d="M144.004,-29.3276C263.353,-50.3078 635.327,-48.6739 635.327,-24.4259 635.327,-0.817193 282.71,1.35418 153.96,-17.9118"/>
<polygon fill="black" stroke="black" points="153.316,-14.4704 144.004,-19.5242 154.435,-21.3804 153.316,-14.4704"/>
<text text-anchor="middle" x="668.327" y="-20.7259" font-family="Times,serif" font-size="14.00">{B, last, C}</text>
</g>
<!-- 1&#45;&gt;1 -->
<g id="edge15" class="edge"><title>1&#45;&gt;1</title>
<path fill="none" stroke="black" d="M143.88,-29.3478C272.713,-52.3165 701.327,-50.6759 701.327,-24.4259 701.327,1.18324 293.386,3.36996 153.842,-17.8657"/>
<polygon fill="black" stroke="black" points="153.18,-14.4275 143.88,-19.504 154.316,-21.3347 153.18,-14.4275"/>
<text text-anchor="middle" x="721.327" y="-20.7259" font-family="Times,serif" font-size="14.00">{B, C}</text>
</g>
<!-- 1&#45;&gt;1 -->
<g id="edge16" class="edge"><title>1&#45;&gt;1</title>
<path fill="none" stroke="black" d="M144.039,-29.4678C279.961,-54.3194 741.327,-52.6388 741.327,-24.4259 741.327,3.12576 301.334,5.3743 154.122,-17.6803"/>
<polygon fill="black" stroke="black" points="153.316,-14.2668 144.039,-19.3839 154.482,-21.169 153.316,-14.2668"/>
<text text-anchor="middle" x="774.827" y="-20.7259" font-family="Times,serif" font-size="14.00">{last, A, C}</text>
</g>
<!-- 1&#45;&gt;1 -->
<g id="edge17" class="edge"><title>1&#45;&gt;1</title>
<path fill="none" stroke="black" d="M143.855,-29.4722C288.722,-56.3267 808.327,-54.6446 808.327,-24.4259 808.327,5.11412 311.801,7.385 154.174,-17.6132"/>
<polygon fill="black" stroke="black" points="153.121,-14.2424 143.855,-19.3796 154.302,-21.1421 153.121,-14.2424"/>
<text text-anchor="middle" x="849.827" y="-20.7259" font-family="Times,serif" font-size="14.00">{B, last, A, C}</text>
</g>
<!-- 2&#45;&gt;1 -->
<g id="edge21" class="edge"><title>2&#45;&gt;1</title>
<path fill="none" stroke="black" d="M95.14,-114.888C67.5001,-113.714 25.9037,-107.059 5.32674,-79.4259 -18.5692,-47.3354 48.025,-33.7274 90.3374,-28.4397"/>
<polygon fill="black" stroke="black" points="90.9682,-31.8902 100.502,-27.2684 90.1669,-24.9363 90.9682,-31.8902"/>
<text text-anchor="middle" x="30.3267" y="-68.2259" font-family="Times,serif" font-size="14.00">{last, A}</text>
</g>
<!-- 2&#45;&gt;1 -->
<g id="edge23" class="edge"><title>2&#45;&gt;1</title>
<path fill="none" stroke="black" d="M101.692,-103.57C87.1083,-94.3053 71.3051,-80.0324 78.3267,-64.4259 82.0595,-56.1293 88.5262,-48.8826 95.3707,-42.9603"/>
<polygon fill="black" stroke="black" points="97.7296,-45.5583 103.438,-36.6328 93.4096,-40.0504 97.7296,-45.5583"/>
<text text-anchor="middle" x="111.827" y="-68.2259" font-family="Times,serif" font-size="14.00">{B, last, A}</text>
</g>
<!-- 2&#45;&gt;1 -->
<g id="edge24" class="edge"><title>2&#45;&gt;1</title>
<path fill="none" stroke="black" d="M134.975,-99.3809C139.118,-93.5307 143.201,-86.5311 145.327,-79.4259 148.188,-69.8617 145.491,-59.7094 141.071,-50.8198"/>
<polygon fill="black" stroke="black" points="144.05,-48.9804 136.001,-42.0905 137.997,-52.4957 144.05,-48.9804"/>
<text text-anchor="middle" x="179.827" y="-68.2259" font-family="Times,serif" font-size="14.00">{last, A, C}</text>
</g>
<!-- 2&#45;&gt;1 -->
<g id="edge25" class="edge"><title>2&#45;&gt;1</title>
<path fill="none" stroke="black" d="M149.058,-112.641C171.42,-109.571 202.046,-101.341 217.327,-79.4259 235.667,-53.1241 188.381,-38.0142 154.129,-30.7827"/>
<polygon fill="black" stroke="black" points="154.493,-27.2871 144.005,-28.7876 153.14,-34.1551 154.493,-27.2871"/>
<text text-anchor="middle" x="262.827" y="-68.2259" font-family="Times,serif" font-size="14.00">{B, last, A, C}</text>
</g>
<!-- 2&#45;&gt;2 -->
<g id="edge18" class="edge"><title>2&#45;&gt;2</title>
<path fill="none" stroke="black" d="M149.568,-117.112C159.351,-117.148 167.327,-116.586 167.327,-115.426 167.327,-114.719 164.365,-114.234 159.837,-113.971"/>
<polygon fill="black" stroke="black" points="159.644,-110.466 149.568,-113.74 159.486,-117.464 159.644,-110.466"/>
<text text-anchor="middle" x="187.327" y="-111.726" font-family="Times,serif" font-size="14.00">{A, C}</text>
</g>
<!-- 2&#45;&gt;2 -->
<g id="edge19" class="edge"><title>2&#45;&gt;2</title>
<path fill="none" stroke="black" d="M149.165,-118.222C175.334,-119.54 207.327,-118.608 207.327,-115.426 207.327,-112.642 182.832,-111.58 159.178,-112.241"/>
<polygon fill="black" stroke="black" points="159.022,-108.744 149.165,-112.63 159.294,-115.739 159.022,-108.744"/>
<text text-anchor="middle" x="235.827" y="-111.726" font-family="Times,serif" font-size="14.00">{B, A, C}</text>
</g>
<!-- 2&#45;&gt;2 -->
<g id="edge20" class="edge"><title>2&#45;&gt;2</title>
<path fill="none" stroke="black" d="M148.932,-118.773C192.371,-121.881 264.327,-120.765 264.327,-115.426 264.327,-110.483 202.655,-109.16 159.034,-111.456"/>
<polygon fill="black" stroke="black" points="158.698,-107.97 148.932,-112.078 159.128,-114.957 158.698,-107.97"/>
<text text-anchor="middle" x="276.327" y="-111.726" font-family="Times,serif" font-size="14.00">{A}</text>
</g>
<!-- 2&#45;&gt;2 -->
<g id="edge22" class="edge"><title>2&#45;&gt;2</title>
<path fill="none" stroke="black" d="M148.811,-119.439C199.255,-124.129 288.327,-122.791 288.327,-115.426 288.327,-108.535 210.367,-106.92 159.012,-110.581"/>
<polygon fill="black" stroke="black" points="158.493,-107.111 148.811,-111.412 159.062,-114.088 158.493,-107.111"/>
<text text-anchor="middle" x="308.327" y="-111.726" font-family="Times,serif" font-size="14.00">{B, A}</text>
</g>
</g>
</svg>
